# xmcd
#
# Track frame offsets: 
#        150
#        20400
#        40935
#        62947
#        82812
#        105376
#        119872
#        140921
#        163167
#        179814
#        200489
#        219346
#
# Disc length: 3216 seconds
#
# Revision: 1
# Processed by: cddbd v1.5.2PL0 Copyright (c) Steve Scherf et al.
# Submitted via: ExactAudioCopy v1.0b3
#
DISCID=b50c8e0c
DTITLE=石海英 - DTS ES 正品 勿忘我
DYEAR=2006
DGENRE=DTS ES
TTITLE0=不必太在意 
TTITLE1=爱情故事
TTITLE2=黄昏
TTITLE3=三月里的小雨[试听]
TTITLE4=这样爱你对不对
TTITLE5=花祭
TTITLE6=玻璃心
TTITLE7=把悲伤留给自己
TTITLE8=小雨中的回忆
TTITLE9=羞答答的玫瑰静悄悄的开
TTITLE10=我愿意
TTITLE11=勿忘我
EXTD=
EXTT0=
EXTT1=
EXTT2=
EXTT3=
EXTT4=
EXTT5=
EXTT6=
EXTT7=
EXTT8=
EXTT9=
EXTT10=
EXTT11=
PLAYORDER=
